<svg xmlns="http://www.w3.org/2000/svg" xmlns:xlink="http://www.w3.org/1999/xlink" width="278" height="38.225" viewBox="0 0 278 38.225">
  <defs>
    <clipPath id="clip-path">
      <rect id="長方形_1863" data-name="長方形 1863" width="272.979" height="9.482" fill="none"/>
    </clipPath>
    <clipPath id="clip-path-2">
      <rect id="長方形_1866" data-name="長方形 1866" width="86.193" height="6.526" fill="none"/>
    </clipPath>
  </defs>
  <g id="logo" transform="translate(15652 10765)">
    <rect id="長方形_1867" data-name="長方形 1867" width="278" height="38.225" transform="translate(-15652 -10765)" fill="#fff"/>
    <g id="グループ_875" data-name="グループ 875" transform="translate(-15650.263 -10762.395)">
      <g id="グループ_871" data-name="グループ 871" transform="translate(0.891)" opacity="0.7">
        <g id="グループ_870" data-name="グループ 870" transform="translate(0 0)">
          <g id="グループ_869" data-name="グループ 869" clip-path="url(#clip-path)">
            <path id="パス_932" data-name="パス 932" d="M80.862,14.181H78.616l-1.351-2.234q-.151-.254-.29-.454a2.587,2.587,0,0,0-.282-.342,1.132,1.132,0,0,0-.3-.218.759.759,0,0,0-.336-.076h-.527v3.325H73.578V5.5h3.1q3.161,0,3.161,2.362A2.451,2.451,0,0,1,79.7,8.7a2.338,2.338,0,0,1-.394.694,2.49,2.49,0,0,1-.614.533,3.166,3.166,0,0,1-.8.351V10.3a1.24,1.24,0,0,1,.375.2,2.688,2.688,0,0,1,.351.318,4.36,4.36,0,0,1,.324.391c.1.139.2.276.282.409ZM75.534,6.964V9.379h.848a1.407,1.407,0,0,0,1.011-.363A1.213,1.213,0,0,0,77.78,8.1q0-1.139-1.362-1.139Z" transform="translate(-73.578 -4.856)" fill="#003e91"/>
            <path id="パス_933" data-name="パス 933" d="M92.892,13.43H88.848q.1,1.35,1.7,1.351a3.324,3.324,0,0,0,1.8-.485v1.38a4.727,4.727,0,0,1-2.234.461,3.142,3.142,0,0,1-2.331-.833,3.144,3.144,0,0,1-.83-2.322,3.319,3.319,0,0,1,.9-2.446,2.985,2.985,0,0,1,2.2-.9,2.712,2.712,0,0,1,2.1.8,3.106,3.106,0,0,1,.741,2.186Zm-1.774-1.175q0-1.332-1.078-1.332a1.028,1.028,0,0,0-.8.382,1.733,1.733,0,0,0-.409.95Z" transform="translate(-79.414 -6.661)" fill="#003e91"/>
            <path id="パス_934" data-name="パス 934" d="M98.791,15.822v-1.55a4.074,4.074,0,0,0,.941.424,3.117,3.117,0,0,0,.887.139,1.9,1.9,0,0,0,.8-.139.45.45,0,0,0,.294-.424.393.393,0,0,0-.134-.3,1.227,1.227,0,0,0-.342-.212,3.814,3.814,0,0,0-.457-.163c-.166-.048-.325-.1-.478-.163a4.584,4.584,0,0,1-.651-.3,1.875,1.875,0,0,1-.472-.373,1.463,1.463,0,0,1-.291-.49,1.957,1.957,0,0,1-.1-.66,1.7,1.7,0,0,1,.227-.9,1.846,1.846,0,0,1,.605-.615,2.766,2.766,0,0,1,.866-.351,4.527,4.527,0,0,1,1.014-.112,5.65,5.65,0,0,1,.836.064,6.157,6.157,0,0,1,.835.185v1.477a3.045,3.045,0,0,0-.778-.318,3.291,3.291,0,0,0-.815-.105,1.815,1.815,0,0,0-.354.033,1.174,1.174,0,0,0-.294.1.539.539,0,0,0-.2.164.376.376,0,0,0-.073.227.419.419,0,0,0,.109.29.933.933,0,0,0,.285.209,2.755,2.755,0,0,0,.39.157q.215.07.427.143a5.513,5.513,0,0,1,.69.29,2.2,2.2,0,0,1,.53.37,1.457,1.457,0,0,1,.339.5,1.989,1.989,0,0,1-.121,1.619,1.916,1.916,0,0,1-.636.636,2.878,2.878,0,0,1-.914.357,5.05,5.05,0,0,1-1.075.113,5.545,5.545,0,0,1-1.9-.315" transform="translate(-84.58 -6.66)" fill="#003e91"/>
            <path id="パス_935" data-name="パス 935" d="M114.473,13.43h-4.044q.1,1.35,1.7,1.351a3.324,3.324,0,0,0,1.8-.485v1.38a4.728,4.728,0,0,1-2.234.461,3.142,3.142,0,0,1-2.331-.833,3.144,3.144,0,0,1-.83-2.322,3.319,3.319,0,0,1,.9-2.446,2.986,2.986,0,0,1,2.2-.9,2.712,2.712,0,0,1,2.1.8,3.1,3.1,0,0,1,.741,2.186ZM112.7,12.256q0-1.332-1.078-1.332a1.028,1.028,0,0,0-.8.382,1.733,1.733,0,0,0-.409.95Z" transform="translate(-88.83 -6.661)" fill="#003e91"/>
            <path id="パス_936" data-name="パス 936" d="M125.894,15.986h-1.81V15.1h-.024a2.022,2.022,0,0,1-1.847,1.041,1.93,1.93,0,0,1-1.42-.512,1.832,1.832,0,0,1-.517-1.365q0-1.8,2.137-2.083l1.683-.224q0-1.017-1.1-1.017a3.758,3.758,0,0,0-2.107.66V10.155a4.734,4.734,0,0,1,1.093-.363,5.713,5.713,0,0,1,1.262-.158,2.342,2.342,0,0,1,2.652,2.646Zm-1.8-2.519v-.418l-1.126.145q-.933.121-.932.842a.694.694,0,0,0,.227.535.871.871,0,0,0,.614.209,1.133,1.133,0,0,0,.878-.373,1.344,1.344,0,0,0,.339-.941" transform="translate(-93.954 -6.661)" fill="#003e91"/>
            <path id="パス_937" data-name="パス 937" d="M136.974,11.544a1.66,1.66,0,0,0-.805-.188,1.16,1.16,0,0,0-.975.457,1.993,1.993,0,0,0-.351,1.245v2.96h-1.914v-6.2h1.914v1.15h.024A1.655,1.655,0,0,1,136.5,9.709a1.233,1.233,0,0,1,.472.073Z" transform="translate(-99.475 -6.694)" fill="#003e91"/>
            <path id="パス_938" data-name="パス 938" d="M146.1,15.762a3.791,3.791,0,0,1-1.871.375,3.164,3.164,0,0,1-2.313-.866,2.991,2.991,0,0,1-.884-2.234,3.3,3.3,0,0,1,.948-2.492,3.5,3.5,0,0,1,2.534-.911,3.25,3.25,0,0,1,1.586.291v1.622a2.181,2.181,0,0,0-1.338-.448,1.763,1.763,0,0,0-1.3.481,1.8,1.8,0,0,0-.481,1.329,1.766,1.766,0,0,0,.46,1.292,1.689,1.689,0,0,0,1.265.47,2.523,2.523,0,0,0,1.4-.448Z" transform="translate(-103.009 -6.661)" fill="#003e91"/>
            <path id="パス_939" data-name="パス 939" d="M158.2,13.8h-1.907V10.272q0-1.362-.993-1.362a1.018,1.018,0,0,0-.824.382,1.472,1.472,0,0,0-.315.969V13.8h-1.914V4.617h1.914v3.9h.024a2.173,2.173,0,0,1,1.907-1.072q2.107,0,2.107,2.543Z" transform="translate(-107.902 -4.472)" fill="#003e91"/>
            <rect id="長方形_1862" data-name="長方形 1862" width="1.956" height="8.683" transform="translate(55.416 0.642)" fill="#003e91"/>
            <path id="パス_940" data-name="パス 940" d="M184.518,15.985h-1.907V12.54q0-1.441-1.029-1.441a1.021,1.021,0,0,0-.817.382,1.452,1.452,0,0,0-.321.969v3.536H178.53v-6.2h1.913v.981h.024a2.193,2.193,0,0,1,1.993-1.132q2.058,0,2.059,2.555Z" transform="translate(-119.372 -6.661)" fill="#003e91"/>
            <path id="パス_941" data-name="パス 941" d="M191.12,15.822v-1.55a4.074,4.074,0,0,0,.941.424,3.117,3.117,0,0,0,.887.139,1.9,1.9,0,0,0,.8-.139.45.45,0,0,0,.294-.424.393.393,0,0,0-.134-.3,1.226,1.226,0,0,0-.342-.212,3.814,3.814,0,0,0-.457-.163c-.166-.048-.325-.1-.478-.163a4.583,4.583,0,0,1-.651-.3,1.875,1.875,0,0,1-.472-.373,1.463,1.463,0,0,1-.291-.49,1.958,1.958,0,0,1-.1-.66,1.7,1.7,0,0,1,.227-.9,1.845,1.845,0,0,1,.605-.615,2.771,2.771,0,0,1,.866-.351,4.527,4.527,0,0,1,1.014-.112,5.651,5.651,0,0,1,.836.064,6.157,6.157,0,0,1,.835.185v1.477a3.044,3.044,0,0,0-.778-.318,3.291,3.291,0,0,0-.815-.105,1.819,1.819,0,0,0-.354.033,1.174,1.174,0,0,0-.294.1.539.539,0,0,0-.2.164.376.376,0,0,0-.073.227.419.419,0,0,0,.109.29.94.94,0,0,0,.285.209,2.755,2.755,0,0,0,.39.157q.215.07.427.143a5.513,5.513,0,0,1,.69.29,2.2,2.2,0,0,1,.53.37,1.449,1.449,0,0,1,.339.5,1.989,1.989,0,0,1-.121,1.619,1.916,1.916,0,0,1-.636.636,2.878,2.878,0,0,1-.914.357,5.049,5.049,0,0,1-1.075.113,5.545,5.545,0,0,1-1.9-.315" transform="translate(-124.866 -6.66)" fill="#003e91"/>
            <path id="パス_942" data-name="パス 942" d="M204.834,14.573a2.828,2.828,0,0,1-1.278.224q-2.022,0-2.022-2.1V9.856h-1.005V8.445h1.005V7.107l1.907-.545V8.445h1.393V9.856h-1.393v2.507q0,.969.769.969a1.3,1.3,0,0,0,.623-.176Z" transform="translate(-128.971 -5.321)" fill="#003e91"/>
            <path id="パス_943" data-name="パス 943" d="M210.87,6.639a1.117,1.117,0,0,1-.793-.287.927.927,0,0,1-.309-.705.9.9,0,0,1,.309-.7,1.3,1.3,0,0,1,1.59,0,.9.9,0,0,1,.306.7.924.924,0,0,1-.306.714,1.138,1.138,0,0,1-.8.278m.927,5.08a.849.849,0,0,0,.188.6.652.652,0,0,0,.5.2,1.652,1.652,0,0,0,.315-.03l.315-.06v1.344a6.9,6.9,0,0,1-.73.148,5.344,5.344,0,0,1-.8.058,1.815,1.815,0,0,1-.693-.127,1.465,1.465,0,0,1-.533-.366,1.649,1.649,0,0,1-.342-.578,2.245,2.245,0,0,1-.121-.763V7.62h1.9Z" transform="translate(-133.002 -4.495)" fill="#003e91"/>
            <path id="パス_944" data-name="パス 944" d="M220.454,14.573a2.829,2.829,0,0,1-1.278.224q-2.022,0-2.022-2.1V9.856h-1.005V8.445h1.005V7.107l1.907-.545V8.445h1.393V9.856h-1.393v2.507q0,.969.769.969a1.3,1.3,0,0,0,.624-.176Z" transform="translate(-135.787 -5.321)" fill="#003e91"/>
            <path id="パス_945" data-name="パス 945" d="M231.515,16.1h-1.907v-.945h-.03a2.163,2.163,0,0,1-1.9,1.1q-2.155,0-2.155-2.61V9.9h1.907v3.573q0,1.314,1.042,1.314a1.028,1.028,0,0,0,.823-.361,1.449,1.449,0,0,0,.309-.977V9.9h1.907Z" transform="translate(-139.878 -6.778)" fill="#003e91"/>
            <path id="パス_946" data-name="パス 946" d="M242.325,14.573a2.829,2.829,0,0,1-1.278.224q-2.022,0-2.022-2.1V9.856H238.02V8.445h1.005V7.107l1.907-.545V8.445h1.393V9.856h-1.393v2.507q0,.969.769.969a1.3,1.3,0,0,0,.624-.176Z" transform="translate(-145.33 -5.321)" fill="#003e91"/>
            <path id="パス_947" data-name="パス 947" d="M252.855,13.43H248.81q.1,1.35,1.7,1.351a3.323,3.323,0,0,0,1.8-.485v1.38a4.727,4.727,0,0,1-2.234.461,3.142,3.142,0,0,1-2.331-.833,3.144,3.144,0,0,1-.83-2.322,3.319,3.319,0,0,1,.9-2.446,2.985,2.985,0,0,1,2.2-.9,2.712,2.712,0,0,1,2.1.8,3.106,3.106,0,0,1,.742,2.186Zm-1.774-1.175q0-1.332-1.078-1.332a1.028,1.028,0,0,0-.8.382,1.732,1.732,0,0,0-.409.95Z" transform="translate(-149.21 -6.661)" fill="#003e91"/>
            <path id="パス_948" data-name="パス 948" d="M268.211,16.138a3.333,3.333,0,0,1-2.437-.869,3.15,3.15,0,0,1-.887-2.358,3.154,3.154,0,0,1,.92-2.407,3.479,3.479,0,0,1,2.489-.869,3.293,3.293,0,0,1,2.422.869,3.091,3.091,0,0,1,.878,2.3,3.28,3.28,0,0,1-.905,2.441,3.372,3.372,0,0,1-2.48.9m.048-5.038a1.275,1.275,0,0,0-1.053.466,2.053,2.053,0,0,0-.375,1.32q0,1.786,1.441,1.786,1.374,0,1.374-1.835,0-1.738-1.387-1.738" transform="translate(-157.052 -6.661)" fill="#003e91"/>
            <path id="パス_949" data-name="パス 949" d="M282.623,5.97a1.932,1.932,0,0,0-.709-.145q-.921,0-.92,1v.66h1.417V8.9h-1.417v4.789h-1.907V8.9h-1.042V7.484h1.042V6.715a2.232,2.232,0,0,1,.69-1.707,2.63,2.63,0,0,1,1.877-.648,3.3,3.3,0,0,1,.969.121Z" transform="translate(-162.794 -4.36)" fill="#003e91"/>
            <path id="パス_950" data-name="パス 950" d="M299.034,14.181h-5.207V5.5h5.008V7.091h-3.052V9.022h2.84v1.586h-2.84v1.986h3.252Z" transform="translate(-169.68 -4.856)" fill="#003e91"/>
            <path id="パス_951" data-name="パス 951" d="M307.017,11.7a.846.846,0,0,0,.188.6.652.652,0,0,0,.5.2,1.657,1.657,0,0,0,.315-.03l.315-.06v1.344a6.9,6.9,0,0,1-.73.148,5.345,5.345,0,0,1-.8.058,1.815,1.815,0,0,1-.693-.127,1.467,1.467,0,0,1-.533-.366,1.648,1.648,0,0,1-.342-.578,2.246,2.246,0,0,1-.121-.763v-7.5h1.9Z" transform="translate(-174.606 -4.472)" fill="#003e91"/>
            <path id="パス_952" data-name="パス 952" d="M317.544,13.43H313.5q.1,1.35,1.7,1.351A3.324,3.324,0,0,0,317,14.3v1.38a4.729,4.729,0,0,1-2.234.461,3.141,3.141,0,0,1-2.331-.833,3.144,3.144,0,0,1-.83-2.322,3.319,3.319,0,0,1,.9-2.446,2.985,2.985,0,0,1,2.2-.9,2.71,2.71,0,0,1,2.1.8,3.1,3.1,0,0,1,.742,2.186Zm-1.774-1.175q0-1.332-1.078-1.332a1.027,1.027,0,0,0-.8.382,1.729,1.729,0,0,0-.409.95Z" transform="translate(-177.437 -6.661)" fill="#003e91"/>
            <path id="パス_953" data-name="パス 953" d="M328.575,15.762a3.791,3.791,0,0,1-1.871.375,3.164,3.164,0,0,1-2.313-.866,2.991,2.991,0,0,1-.884-2.234,3.294,3.294,0,0,1,.947-2.492,3.506,3.506,0,0,1,2.535-.911,3.25,3.25,0,0,1,1.586.291v1.622a2.181,2.181,0,0,0-1.338-.448,1.762,1.762,0,0,0-1.3.481,1.8,1.8,0,0,0-.481,1.329,1.766,1.766,0,0,0,.46,1.292,1.688,1.688,0,0,0,1.265.47,2.523,2.523,0,0,0,1.4-.448Z" transform="translate(-182.63 -6.661)" fill="#003e91"/>
            <path id="パス_954" data-name="パス 954" d="M338.038,14.573a2.828,2.828,0,0,1-1.278.224q-2.022,0-2.022-2.1V9.856h-1.005V8.445h1.005V7.107l1.907-.545V8.445h1.393V9.856h-1.393v2.507q0,.969.769.969a1.3,1.3,0,0,0,.623-.176Z" transform="translate(-187.092 -5.321)" fill="#003e91"/>
            <path id="パス_955" data-name="パス 955" d="M347.328,11.544a1.661,1.661,0,0,0-.805-.188,1.161,1.161,0,0,0-.975.457,2,2,0,0,0-.351,1.245v2.96h-1.914v-6.2H345.2v1.15h.024a1.655,1.655,0,0,1,1.635-1.259,1.229,1.229,0,0,1,.472.073Z" transform="translate(-191.259 -6.694)" fill="#003e91"/>
            <path id="パス_956" data-name="パス 956" d="M352.828,6.639a1.117,1.117,0,0,1-.793-.287.927.927,0,0,1-.309-.705.9.9,0,0,1,.309-.7,1.3,1.3,0,0,1,1.59,0,.9.9,0,0,1,.306.7.922.922,0,0,1-.306.714,1.138,1.138,0,0,1-.8.278m.927,5.08a.849.849,0,0,0,.188.6.652.652,0,0,0,.5.2,1.652,1.652,0,0,0,.315-.03l.315-.06v1.344a6.917,6.917,0,0,1-.729.148,5.353,5.353,0,0,1-.8.058,1.815,1.815,0,0,1-.693-.127,1.472,1.472,0,0,1-.533-.366,1.657,1.657,0,0,1-.342-.578,2.247,2.247,0,0,1-.121-.763V7.62h1.9Z" transform="translate(-194.943 -4.495)" fill="#003e91"/>
            <path id="パス_957" data-name="パス 957" d="M363.509,15.762a3.791,3.791,0,0,1-1.871.375,3.165,3.165,0,0,1-2.313-.866,2.991,2.991,0,0,1-.884-2.234,3.3,3.3,0,0,1,.948-2.492,3.5,3.5,0,0,1,2.534-.911,3.25,3.25,0,0,1,1.586.291v1.622a2.18,2.18,0,0,0-1.338-.448,1.761,1.761,0,0,0-1.3.481,1.793,1.793,0,0,0-.482,1.329,1.768,1.768,0,0,0,.46,1.292,1.69,1.69,0,0,0,1.266.47,2.522,2.522,0,0,0,1.4-.448Z" transform="translate(-197.873 -6.661)" fill="#003e91"/>
            <path id="パス_958" data-name="パス 958" d="M374.458,15.986h-1.81V15.1h-.024a2.022,2.022,0,0,1-1.847,1.041,1.927,1.927,0,0,1-1.419-.512,1.828,1.828,0,0,1-.518-1.365q0-1.8,2.137-2.083l1.683-.224q0-1.017-1.1-1.017a3.758,3.758,0,0,0-2.107.66V10.155a4.744,4.744,0,0,1,1.093-.363,5.713,5.713,0,0,1,1.262-.158,2.342,2.342,0,0,1,2.652,2.646Zm-1.8-2.519v-.418l-1.126.145q-.933.121-.932.842a.7.7,0,0,0,.227.535.876.876,0,0,0,.615.209,1.133,1.133,0,0,0,.878-.373,1.342,1.342,0,0,0,.339-.941" transform="translate(-202.41 -6.661)" fill="#003e91"/>
            <path id="パス_959" data-name="パス 959" d="M383.308,11.7a.848.848,0,0,0,.188.6.652.652,0,0,0,.5.2,1.652,1.652,0,0,0,.315-.03l.315-.06v1.344a6.916,6.916,0,0,1-.729.148,5.352,5.352,0,0,1-.8.058,1.815,1.815,0,0,1-.693-.127,1.472,1.472,0,0,1-.533-.366,1.665,1.665,0,0,1-.342-.578,2.247,2.247,0,0,1-.121-.763v-7.5h1.9Z" transform="translate(-207.894 -4.472)" fill="#003e91"/>
            <path id="パス_960" data-name="パス 960" d="M400.756,13.76a5.728,5.728,0,0,1-2.482.46,4.184,4.184,0,0,1-3.143-1.175,4.294,4.294,0,0,1-1.144-3.13,4.589,4.589,0,0,1,1.287-3.379,4.5,4.5,0,0,1,3.339-1.3,6.239,6.239,0,0,1,2.144.321V7.445a3.8,3.8,0,0,0-1.986-.521,2.634,2.634,0,0,0-1.974.769,2.854,2.854,0,0,0-.751,2.083,2.8,2.8,0,0,0,.708,2.007,2.5,2.5,0,0,0,1.908.748,4.066,4.066,0,0,0,2.1-.557Z" transform="translate(-213.382 -4.744)" fill="#003e91"/>
            <path id="パス_961" data-name="パス 961" d="M411.018,16.138a3.332,3.332,0,0,1-2.437-.869,3.148,3.148,0,0,1-.887-2.358,3.152,3.152,0,0,1,.92-2.407,3.48,3.48,0,0,1,2.489-.869,3.293,3.293,0,0,1,2.422.869,3.091,3.091,0,0,1,.878,2.3,3.278,3.278,0,0,1-.905,2.441,3.373,3.373,0,0,1-2.48.9m.048-5.038a1.275,1.275,0,0,0-1.053.466,2.053,2.053,0,0,0-.375,1.32q0,1.786,1.441,1.786,1.375,0,1.375-1.835,0-1.738-1.387-1.738" transform="translate(-219.364 -6.661)" fill="#003e91"/>
            <path id="パス_962" data-name="パス 962" d="M431.644,15.985h-1.907V12.45q0-1.35-.993-1.351a.913.913,0,0,0-.769.406,1.67,1.67,0,0,0-.3,1.011v3.469h-1.914V12.413q0-1.314-.975-1.314a.937.937,0,0,0-.785.388,1.709,1.709,0,0,0-.293,1.053v3.445H421.8v-6.2h1.914v.969h.024a2.346,2.346,0,0,1,2-1.12,1.785,1.785,0,0,1,1.8,1.156,2.293,2.293,0,0,1,2.083-1.156q2.022,0,2.022,2.494Z" transform="translate(-225.518 -6.661)" fill="#003e91"/>
            <path id="パス_963" data-name="パス 963" d="M451.8,15.985h-1.908V12.45q0-1.35-.993-1.351a.912.912,0,0,0-.769.406,1.67,1.67,0,0,0-.3,1.011v3.469h-1.914V12.413q0-1.314-.975-1.314a.937.937,0,0,0-.785.388,1.709,1.709,0,0,0-.293,1.053v3.445H441.95v-6.2h1.914v.969h.024a2.346,2.346,0,0,1,2-1.12,1.785,1.785,0,0,1,1.8,1.156,2.293,2.293,0,0,1,2.083-1.156q2.022,0,2.022,2.494Z" transform="translate(-234.31 -6.661)" fill="#003e91"/>
            <path id="パス_964" data-name="パス 964" d="M467.919,16.1h-1.907v-.945h-.03a2.163,2.163,0,0,1-1.9,1.1q-2.156,0-2.155-2.61V9.9h1.907v3.573q0,1.314,1.042,1.314a1.028,1.028,0,0,0,.823-.361,1.448,1.448,0,0,0,.309-.977V9.9h1.907Z" transform="translate(-243.029 -6.778)" fill="#003e91"/>
            <path id="パス_965" data-name="パス 965" d="M481.4,15.985h-1.907V12.54q0-1.441-1.029-1.441a1.022,1.022,0,0,0-.817.382,1.452,1.452,0,0,0-.321.969v3.536h-1.913v-6.2h1.913v.981h.024a2.194,2.194,0,0,1,1.993-1.132q2.058,0,2.059,2.555Z" transform="translate(-248.911 -6.661)" fill="#003e91"/>
            <path id="パス_966" data-name="パス 966" d="M489.512,6.639a1.117,1.117,0,0,1-.793-.287.926.926,0,0,1-.309-.705.9.9,0,0,1,.309-.7,1.3,1.3,0,0,1,1.589,0,.9.9,0,0,1,.306.7.92.92,0,0,1-.306.714,1.136,1.136,0,0,1-.8.278m.927,5.08a.848.848,0,0,0,.188.6.652.652,0,0,0,.5.2,1.653,1.653,0,0,0,.315-.03l.315-.06v1.344a6.922,6.922,0,0,1-.729.148,5.352,5.352,0,0,1-.8.058,1.82,1.82,0,0,1-.694-.127,1.475,1.475,0,0,1-.533-.366,1.656,1.656,0,0,1-.342-.578,2.247,2.247,0,0,1-.121-.763V7.62h1.9Z" transform="translate(-254.582 -4.495)" fill="#003e91"/>
            <path id="パス_967" data-name="パス 967" d="M500.192,15.762a3.791,3.791,0,0,1-1.871.375,3.165,3.165,0,0,1-2.313-.866,2.991,2.991,0,0,1-.884-2.234,3.3,3.3,0,0,1,.948-2.492,3.5,3.5,0,0,1,2.534-.911,3.25,3.25,0,0,1,1.586.291v1.622a2.18,2.18,0,0,0-1.338-.448,1.761,1.761,0,0,0-1.3.481,1.793,1.793,0,0,0-.482,1.329,1.768,1.768,0,0,0,.46,1.292,1.69,1.69,0,0,0,1.266.47,2.522,2.522,0,0,0,1.4-.448Z" transform="translate(-257.512 -6.661)" fill="#003e91"/>
            <path id="パス_968" data-name="パス 968" d="M511.142,15.986h-1.81V15.1h-.024a2.021,2.021,0,0,1-1.847,1.041,1.927,1.927,0,0,1-1.419-.512,1.828,1.828,0,0,1-.518-1.365q0-1.8,2.137-2.083l1.683-.224q0-1.017-1.1-1.017a3.758,3.758,0,0,0-2.107.66V10.155a4.743,4.743,0,0,1,1.093-.363,5.713,5.713,0,0,1,1.262-.158,2.342,2.342,0,0,1,2.652,2.646Zm-1.8-2.519v-.418l-1.126.145q-.933.121-.932.842a.7.7,0,0,0,.227.535.876.876,0,0,0,.615.209,1.133,1.133,0,0,0,.878-.373,1.342,1.342,0,0,0,.339-.941" transform="translate(-262.049 -6.661)" fill="#003e91"/>
            <path id="パス_969" data-name="パス 969" d="M521.493,14.573a2.827,2.827,0,0,1-1.278.224q-2.022,0-2.022-2.1V9.856h-1.005V8.445h1.005V7.107l1.907-.545V8.445h1.393V9.856H520.1v2.507q0,.969.769.969a1.3,1.3,0,0,0,.623-.176Z" transform="translate(-267.139 -5.321)" fill="#003e91"/>
            <path id="パス_970" data-name="パス 970" d="M527.529,6.639a1.119,1.119,0,0,1-.794-.287.927.927,0,0,1-.309-.705.9.9,0,0,1,.309-.7,1.3,1.3,0,0,1,1.59,0,.9.9,0,0,1,.306.7.922.922,0,0,1-.306.714,1.137,1.137,0,0,1-.8.278m.926,5.08a.851.851,0,0,0,.188.6.652.652,0,0,0,.5.2,1.65,1.65,0,0,0,.314-.03l.315-.06v1.344a6.918,6.918,0,0,1-.729.148,5.353,5.353,0,0,1-.8.058,1.815,1.815,0,0,1-.693-.127,1.476,1.476,0,0,1-.533-.366,1.665,1.665,0,0,1-.342-.578,2.246,2.246,0,0,1-.121-.763V7.62h1.9Z" transform="translate(-271.17 -4.495)" fill="#003e91"/>
            <path id="パス_971" data-name="パス 971" d="M536.465,16.138a3.331,3.331,0,0,1-2.437-.869,3.148,3.148,0,0,1-.887-2.358,3.153,3.153,0,0,1,.92-2.407,3.48,3.48,0,0,1,2.489-.869,3.293,3.293,0,0,1,2.422.869,3.091,3.091,0,0,1,.878,2.3,3.278,3.278,0,0,1-.905,2.441,3.372,3.372,0,0,1-2.48.9m.049-5.038a1.275,1.275,0,0,0-1.054.466,2.056,2.056,0,0,0-.375,1.32q0,1.786,1.441,1.786,1.374,0,1.374-1.835,0-1.738-1.387-1.738" transform="translate(-274.1 -6.661)" fill="#003e91"/>
            <path id="パス_972" data-name="パス 972" d="M553.233,15.985h-1.908V12.54q0-1.441-1.029-1.441a1.022,1.022,0,0,0-.817.382,1.452,1.452,0,0,0-.321.969v3.536h-1.914v-6.2h1.914v.981h.024a2.194,2.194,0,0,1,1.993-1.132q2.058,0,2.059,2.555Z" transform="translate(-280.254 -6.661)" fill="#003e91"/>
          </g>
        </g>
      </g>
      <g id="グループ_874" data-name="グループ 874" transform="translate(188.332 16.272)" opacity="0.7">
        <g id="グループ_873" data-name="グループ 873" transform="translate(0 0)">
          <g id="グループ_872" data-name="グループ 872" clip-path="url(#clip-path-2)">
            <path id="パス_973" data-name="パス 973" d="M410.5,34.084h-1.823V39.73h-.74V34.084h-1.818v-.67H410.5Z" transform="translate(-406.117 -33.309)" fill="#003e91"/>
            <path id="パス_974" data-name="パス 974" d="M417.873,39.754a2.771,2.771,0,0,1-2.151-.886,3.282,3.282,0,0,1-.808-2.3,3.479,3.479,0,0,1,.824-2.431,2.876,2.876,0,0,1,2.242-.907,2.708,2.708,0,0,1,2.107.88,3.3,3.3,0,0,1,.8,2.3,3.49,3.49,0,0,1-.819,2.444,2.825,2.825,0,0,1-2.193.9m.053-5.857a2.035,2.035,0,0,0-1.616.718,3.192,3.192,0,0,0-.016,3.762,1.975,1.975,0,0,0,1.579.711,2.075,2.075,0,0,0,1.639-.678,2.773,2.773,0,0,0,.6-1.9,2.9,2.9,0,0,0-.581-1.933,1.993,1.993,0,0,0-1.6-.683" transform="translate(-409.955 -33.228)" fill="#003e91"/>
            <path id="パス_975" data-name="パス 975" d="M432.458,39.73h-.74V36.85h-3.268v2.88h-.74V33.415h.74v2.77h3.268v-2.77h.74Z" transform="translate(-415.539 -33.31)" fill="#003e91"/>
            <path id="パス_976" data-name="パス 976" d="M441.3,39.754a2.771,2.771,0,0,1-2.151-.886,3.282,3.282,0,0,1-.808-2.3,3.479,3.479,0,0,1,.824-2.431,2.876,2.876,0,0,1,2.242-.907,2.708,2.708,0,0,1,2.107.88,3.3,3.3,0,0,1,.8,2.3,3.49,3.49,0,0,1-.819,2.444,2.825,2.825,0,0,1-2.193.9m.053-5.857a2.035,2.035,0,0,0-1.616.718,3.192,3.192,0,0,0-.016,3.762,1.975,1.975,0,0,0,1.579.711,2.075,2.075,0,0,0,1.639-.678,2.773,2.773,0,0,0,.6-1.9,2.9,2.9,0,0,0-.581-1.933,1.993,1.993,0,0,0-1.6-.683" transform="translate(-420.175 -33.228)" fill="#003e91"/>
            <path id="パス_977" data-name="パス 977" d="M455.528,39.73H454.5l-2.44-2.889a1.667,1.667,0,0,1-.167-.22h-.017V39.73h-.74V33.415h.74v2.968h.017a1.656,1.656,0,0,1,.167-.216l2.36-2.752h.92l-2.708,3.03Z" transform="translate(-425.759 -33.309)" fill="#003e91"/>
            <path id="パス_978" data-name="パス 978" d="M464.972,37.176q0,2.66-2.4,2.66-2.3,0-2.3-2.558V33.415h.74v3.814q0,1.942,1.638,1.942,1.58,0,1.581-1.876v-3.88h.74Z" transform="translate(-429.747 -33.309)" fill="#003e91"/>
            <path id="パス_979" data-name="パス 979" d="M480.347,37.176q0,2.66-2.4,2.66-2.3,0-2.3-2.558V33.415h.74v3.814q0,1.942,1.638,1.942,1.58,0,1.581-1.876v-3.88h.74Z" transform="translate(-436.456 -33.309)" fill="#003e91"/>
            <path id="パス_980" data-name="パス 980" d="M491.871,39.73h-.907l-3.25-5.034a2.052,2.052,0,0,1-.2-.4h-.027a6.588,6.588,0,0,1,.035.867V39.73h-.74V33.415h.96l3.162,4.954c.132.205.217.346.255.423h.018a6.6,6.6,0,0,1-.044-.929V33.415h.74Z" transform="translate(-441.313 -33.309)" fill="#003e91"/>
            <rect id="長方形_1864" data-name="長方形 1864" width="0.74" height="6.315" transform="translate(52.214 0.106)" fill="#003e91"/>
            <path id="パス_981" data-name="パス 981" d="M507.123,33.415l-2.338,6.315h-.815l-2.29-6.315h.824l1.748,5.007a3,3,0,0,1,.128.559h.017a2.707,2.707,0,0,1,.145-.568l1.783-5Z" transform="translate(-447.814 -33.309)" fill="#003e91"/>
            <path id="パス_982" data-name="パス 982" d="M516.292,39.73h-3.346V33.415h3.206v.669h-2.466v2.1h2.281v.665h-2.281v2.211h2.607Z" transform="translate(-452.73 -33.31)" fill="#003e91"/>
            <path id="パス_983" data-name="パス 983" d="M525.566,39.73h-.881l-1.057-1.77a3.894,3.894,0,0,0-.282-.42,1.613,1.613,0,0,0-.28-.284.96.96,0,0,0-.308-.161,1.266,1.266,0,0,0-.372-.051h-.607V39.73h-.74V33.415h1.884a2.7,2.7,0,0,1,.764.1,1.708,1.708,0,0,1,.608.315,1.469,1.469,0,0,1,.4.526,1.745,1.745,0,0,1,.145.738,1.777,1.777,0,0,1-.1.605,1.6,1.6,0,0,1-.282.491,1.723,1.723,0,0,1-.441.368,2.237,2.237,0,0,1-.579.235v.018a1.307,1.307,0,0,1,.275.161,1.494,1.494,0,0,1,.223.214,2.823,2.823,0,0,1,.208.28q.1.156.231.363Zm-3.787-5.646v2.29h1a1.523,1.523,0,0,0,.513-.083,1.18,1.18,0,0,0,.407-.24,1.094,1.094,0,0,0,.269-.383,1.292,1.292,0,0,0,.1-.509.99.99,0,0,0-.328-.79,1.408,1.408,0,0,0-.949-.284Z" transform="translate(-456.261 -33.309)" fill="#003e91"/>
            <path id="パス_984" data-name="パス 984" d="M530.086,39.392V38.52a1.69,1.69,0,0,0,.359.238,2.908,2.908,0,0,0,.44.178,3.5,3.5,0,0,0,.464.113,2.581,2.581,0,0,0,.432.039,1.688,1.688,0,0,0,1.019-.253.95.95,0,0,0,.225-1.174,1.27,1.27,0,0,0-.311-.346,3.1,3.1,0,0,0-.469-.3c-.18-.1-.375-.2-.583-.3s-.426-.224-.617-.339a2.682,2.682,0,0,1-.5-.379,1.573,1.573,0,0,1-.332-.469,1.6,1.6,0,0,1,.068-1.365,1.615,1.615,0,0,1,.5-.526,2.257,2.257,0,0,1,.7-.308,3.2,3.2,0,0,1,.8-.1,3.078,3.078,0,0,1,1.361.225v.832a2.473,2.473,0,0,0-1.436-.387,2.352,2.352,0,0,0-.484.051,1.347,1.347,0,0,0-.432.165.952.952,0,0,0-.308.295.782.782,0,0,0-.119.44.9.9,0,0,0,.09.419,1.016,1.016,0,0,0,.266.321,2.616,2.616,0,0,0,.43.282c.169.091.364.191.583.3s.441.229.643.352a2.947,2.947,0,0,1,.533.41,1.815,1.815,0,0,1,.364.5,1.4,1.4,0,0,1,.134.625,1.585,1.585,0,0,1-.183.79,1.5,1.5,0,0,1-.493.526,2.153,2.153,0,0,1-.716.293,3.908,3.908,0,0,1-.854.091,3.575,3.575,0,0,1-.37-.024c-.147-.017-.3-.04-.449-.07a3.637,3.637,0,0,1-.434-.114,1.358,1.358,0,0,1-.328-.152" transform="translate(-460.209 -33.227)" fill="#003e91"/>
            <rect id="長方形_1865" data-name="長方形 1865" width="0.74" height="6.315" transform="translate(74.964 0.106)" fill="#003e91"/>
            <path id="パス_985" data-name="パス 985" d="M546.6,34.084h-1.823V39.73h-.74V34.084h-1.818v-.67H546.6Z" transform="translate(-465.503 -33.309)" fill="#003e91"/>
            <path id="パス_986" data-name="パス 986" d="M555.275,33.415,553.192,37.4V39.73h-.74V37.414l-2.03-4h.841l1.414,2.854c.017.035.069.165.154.387h.013a2.245,2.245,0,0,1,.167-.387l1.48-2.854Z" transform="translate(-469.082 -33.309)" fill="#003e91"/>
          </g>
        </g>
      </g>
      <path id="パス_987" data-name="パス 987" d="M136.456,34.315a4.329,4.329,0,0,1,1.671.078c.269.409.786.709.918,1.3a8.088,8.088,0,0,0-.346,2.5c-.032.619-.1.619.192.619,1.836-.341,3.176-1.325,4.469-1.559a6.375,6.375,0,0,0,1.417,1.134,21.049,21.049,0,0,1-1.174,1.89c-.769-.064-.759-.3-1.119-.285-1.052.157-2.685.882-4.088,1.279,0,.32.035.533.323.7.46.179,1.005,1.864,2.609,3.465a14.47,14.47,0,0,0,2.821,2.34c.833.533,2.537,1.853,2.82,2.042a7.244,7.244,0,0,1-.993.4,13.178,13.178,0,0,1-3.077-.048,1.468,1.468,0,0,1-1.241-.722c-.475-1.134-1.068-1.831-1.677-3.352-.587-1.2-1.155-2.393-1.442-2.807-.352-.384-.352-.384-.851-.366a20.008,20.008,0,0,1-1.418,3.688,8.883,8.883,0,0,1-1.418,1.985c-.928.815-1.344.912-1.953,1.418-.945.095-1.923-.094-2.869,0a.428.428,0,0,1,.285-.283,28.635,28.635,0,0,0,3.353-2.627,6.6,6.6,0,0,0,2.155-3.046,16.771,16.771,0,0,0,.447-1.7c-.774.169-1.659.936-1.986.568-.874-.5-1.246-1.376-1.985-1.985.095-.378.275-.455.5-.855a6.183,6.183,0,0,0,2.9-.346,1.744,1.744,0,0,0,1.139-.569,10.767,10.767,0,0,0-.005-1.915,12.715,12.715,0,0,1-.849-2.553c.092,0,.277-.4.47-.385" transform="translate(-97.32 -17.415)" fill="#1a1311" fill-rule="evenodd"/>
      <path id="パス_988" data-name="パス 988" d="M115.7,35.109a5.331,5.331,0,0,0,.8.82c.086.654-.2.707-.379.983-.07.74-.17,2.433-.17,3.472a4.075,4.075,0,0,0,1.777-.538,13.112,13.112,0,0,0,1.578-1.078,6.976,6.976,0,0,1,1.581-.046,8.882,8.882,0,0,1,.163,1.311c-.327.441-.4.6-.529.679a7.088,7.088,0,0,0-2.021.413c-.248.125-.462.313-1.123.71-.573-.069-.715-.136-.83-.273-.18-.013-.4.05-.714.062v1.052a19.261,19.261,0,0,0,.187,3.976c.272.338,1.474,1.427,3.933,1.007A7.99,7.99,0,0,0,121,45.32h.378a4.8,4.8,0,0,0,1.134,2.668,6.273,6.273,0,0,1,0,1.018,4.533,4.533,0,0,1-1.7.568c-1.112.337-3.022-.395-3.687-.568a3.893,3.893,0,0,1-1.418-.851c-1.274-.971-1.135-3.649-1.134-5.956V39.364a20.657,20.657,0,0,0-.4-4.331,2.3,2.3,0,0,1,.582-.706c.57.162.49.269.953.782" transform="translate(-90.399 -17.435)" fill="#1a1311" fill-rule="evenodd"/>
      <path id="パス_989" data-name="パス 989" d="M105.909,43.44a13.149,13.149,0,0,0,.034,2.078,1.8,1.8,0,0,0,.557.076,7.522,7.522,0,0,1,.121,1.21c.017.6,0,.882,0,1.5a2.308,2.308,0,0,1-.163.516,8.784,8.784,0,0,0-.9.7c-.375.222-.384.078-.551-.095a6.238,6.238,0,0,0-1.637,1.24,2.187,2.187,0,0,1-.258.8,4.54,4.54,0,0,0-.935.491,4.368,4.368,0,0,1-2.162-1.911c.472-.095.817-.426,1.289-.521a21.306,21.306,0,0,0,2.932-1.779c.065-.1.008-.217.046-.328.07-.794-.114-2.306-.142-3.281-.763.333-1.992,1.294-2.7,1.289a1.947,1.947,0,0,1-.767-.565,2.275,2.275,0,0,1-.493-.985,10.549,10.549,0,0,1,1.456-.457,28.941,28.941,0,0,0,2.712-1.029c0-1.005-.1-2.594-.093-4.047.378-.094.65-.139,1.029-.233a5.653,5.653,0,0,1,1.244,1.746c-.026,0,.231.248.206.522a2.978,2.978,0,0,0-.354,1.289,7.952,7.952,0,0,0-.02,1.144,2.47,2.47,0,0,1-.455.635" transform="translate(-84.224 -19.084)" fill="#1a1311" fill-rule="evenodd"/>
      <path id="パス_990" data-name="パス 990" d="M168.883,33.553H170.3c.538.924,1.059,1.03,1.135,2.552a12.781,12.781,0,0,1-2.836,1.136v.567c1.387-.055,2.118-.043,2.823-.567a10.137,10.137,0,0,1,2.849,2.223c.228.737.081.491-.316,1.441a13.823,13.823,0,0,0-2.692.578c-.756-.095-.91-.227-1.667-.321a6.361,6.361,0,0,1,1.555-1.653c-.094-.284-.188-.568-.283-.851a18.258,18.258,0,0,0-5.1.567,22.723,22.723,0,0,0-3.119,1.419c-.509.319-1.318.2-1.318.295A6.884,6.884,0,0,0,161.1,43.5a1.353,1.353,0,0,1-.444.7,2.6,2.6,0,0,1-1.134-.16,3.049,3.049,0,0,1-.455-1.764c.353-.405.587-.451.739-.788.094-.756.161-1.289.256-2.044a13.632,13.632,0,0,0,2.929-.083,1.751,1.751,0,0,0,.514-.566,4.835,4.835,0,0,1-2.085-3.121c.474.095,1.033.047,1.506.142.188.368.82.789.85.851.645,1.295-1.019,1.7,1.136,1.985a7.424,7.424,0,0,1,1.985-.566v-.284c.575-.487,1.135-1.514,1.416-1.7a4.451,4.451,0,0,0,.569-2.552" transform="translate(-109.979 -17.098)" fill="#1a1311" fill-rule="evenodd"/>
      <path id="パス_991" data-name="パス 991" d="M168.448,34.559h1.418a16.81,16.81,0,0,0,.85,1.7v1.419l-1.417-.285q-.424-1.418-.851-2.836" transform="translate(-114.083 -17.537)" fill="#1a1311" fill-rule="evenodd"/>
      <path id="パス_992" data-name="パス 992" d="M167.785,48.016c-.284.277-.284.277-.472.277a1.16,1.16,0,0,0,.472.733c1.764-.384,2.405-.544,3.121-1.578h.283c0,.095,1.677.287,1.985,1.418.094,0,.094.567,0,.851a16.433,16.433,0,0,1-1.766.143,16.973,16.973,0,0,1-2.2.1c-.528.127.372-.018-.528.127-.313.289-.135.344.1.9A4.168,4.168,0,0,1,168.843,53a4.952,4.952,0,0,1-1.057,1.75c-.609.364-.64.623-1.282.364a10.007,10.007,0,0,0-1.1-2.032c.566.094.954.112,1.744.207a4.3,4.3,0,0,0,.173-2.753c-.433-.165,0,0-.669-.068,0,.095-.664.026-1.622.322-.689.37-1.184,1.153-1.986,1.024-.246-.291-.929-.513-1.214-.965a1.032,1.032,0,0,1-.074-.67,15.951,15.951,0,0,0,3.478-.464c.472-.095,1.118-.083,1.591-.178,0-.189.032-.513-.173-.673-.189,0-.436.16-.4-.32.267-.349.428-.317.771-.8a6.1,6.1,0,0,0,.519-1.795c-.094,0-.037.077-.552.385-.372.419-1.468,1.16-1.891,1.635a9.72,9.72,0,0,1-1.562-.807.888.888,0,0,1,.284-.849,22.039,22.039,0,0,0,2.552-.851,8.077,8.077,0,0,1,1.985-.851,1.471,1.471,0,0,1,1.292,1.626,4.957,4.957,0,0,0-1.86,1.778" transform="translate(-111.152 -21.916)" fill="#1a1311" fill-rule="evenodd"/>
      <path id="パス_993" data-name="パス 993" d="M78.25,37.514c0-.378-.011-1.014-.011-1.392-.1,0-1.064.372-1.158.372l-.913.388c-1.083-.189-1.721-.327-1.84-1.53.039-.459.389-.457.389-.552a18.4,18.4,0,0,0,2.176.093,1.553,1.553,0,0,0,.771-.233,14.625,14.625,0,0,0-.306-3.449,3.291,3.291,0,0,1,1.447-.2c.568.346.871,1.1,1.135,1.418,0,.473-.007,1.144-.007,1.618.756-.094,1.513-.186,2.269-.281a8.1,8.1,0,0,0,1.141.364,3,3,0,0,1,.284,1.135c-.532.444-.91.676-1.418.568-.685-.032-1.506.117-2.553.179,0,.284.021.7.021.981a14.264,14.264,0,0,0,4.368-.783c.662.755,1.189,1.134,1.851,1.891-.045.413.072.7-.068.9-.228.327-.83.569-1.067.8a7.569,7.569,0,0,0-.687,2.313c-.1.463-.047,1.147-.164,1.544-.158.067-.581-.086-.889-.163.023-.165-.119-.3-.094-.374a24.092,24.092,0,0,0-3.272-.2v.284h.568a14.511,14.511,0,0,0,2.512,2.027c.838.7,1.482,1.053,2.309,1.659a17.755,17.755,0,0,1,1.882,1.3,1.816,1.816,0,0,1-.959.678,13,13,0,0,1-1.988.165c-.43.021-.606-.225-1.2-.446a12.725,12.725,0,0,0-1.06-1.95,18.253,18.253,0,0,0-1.777-2.588h-.284c0,.095-.026.576,0,1.077v2.61c.231.361.1.568,0,.851a.859.859,0,0,1-.775.749,1.871,1.871,0,0,1-1.274-.719c-.13-.357-.1-.548-.316-.731a2.178,2.178,0,0,0-1.038-.433,1.9,1.9,0,0,1-.108-.456c.46-.051,1.045.026,1.473,0a1.94,1.94,0,0,0,.959-.188c0-.755.024-1.839.024-2.6a.783.783,0,0,0-.515.14,14.543,14.543,0,0,1-1.918,1.848c-.538.538-.537.78-.959,1.194-.327.364-.662.373-1.1.608-.618.061-1.491-.179-2.11-.118,0-.094,0-.15.45-.4a28.509,28.509,0,0,0,2.783-1.847,3.575,3.575,0,0,0,1.544-1.825c-.176,0-.64.117-.889.117-.149,0-.338-.163-.444-.163a7.537,7.537,0,0,1-.688-1.661,19.9,19.9,0,0,0-1.3-2.739,1.555,1.555,0,0,1-.321-1.56l.99-.247c.384.1.379.278.608.37.08.1-.059.368.069.39a4.654,4.654,0,0,0,1.484-.12Zm3.485.116a6.274,6.274,0,0,1,1.357-.14,20.575,20.575,0,0,1-.445,3.766c.015.286-.14.257-.438.253a13.073,13.073,0,0,0-2.553.285V40.227a8.282,8.282,0,0,1,1.471-.14.746.746,0,0,0,.772-.444c-.228-.566-.377-.535-.54-.969a10.19,10.19,0,0,0-1.729.408c0-.284.025-.817.025-1.1.668-.111,1.413-.239,2.081-.351m-3.6.679c.374-.07.17-.145.491.095a8.446,8.446,0,0,0-.07,1.168,10.237,10.237,0,0,1-1.73.7s-.559.145-.7.047c-.189-.131-.251-.374-.377-.859a8.424,8.424,0,0,1,2.389-1.153m-.725,2.807a4.627,4.627,0,0,1,1.114-.608c0,.472.008,1,.008,1.472a4.717,4.717,0,0,1-.959.281c-.405.143-.719.377-.8.351a.263.263,0,0,1-.24-.251v-.778c.284-.094.588-.373.871-.467" transform="translate(-71.999 -15.991)" fill="#1a1311" fill-rule="evenodd"/>
      <path id="パス_994" data-name="パス 994" d="M345.872,33.5a2.731,2.731,0,0,1,1.291-.077c.28.256,1.193.36,1.193.454.5.224.462.042.71.414.249.347.19.851.284.851v.567c.264.325.182.158.728.246.58-.361,1.819-.517,2.393-.813a14.683,14.683,0,0,0,1.755,1.091,4.134,4.134,0,0,1,1.4.858,1.1,1.1,0,0,1-.184,1.167c-.658.151-1.288.067-1.666.162,0,0-.639.234-1.075.366-.625-.023-1.011.206-1.527-.139.25-.235.481-.2.632-.554a4.515,4.515,0,0,0,.549-.8c.325-.711.379-.608.117-.738a3.693,3.693,0,0,0-2.33-.127c-.926.207-1.789.643-2.167.737-.645.314-.773.311-1.529.659-.808.48-1,.623-1,.623a.637.637,0,0,1-.61.06,12.064,12.064,0,0,0-.367,1.819,2.633,2.633,0,0,1-.357,1.14.942.942,0,0,1-1-.091c-.224-.141-.286-.759-.282-1.778a3.179,3.179,0,0,0,.766-1.014,2.764,2.764,0,0,0,.268-1.167,1.62,1.62,0,0,1-.065-.883c.191,0,.389-.058.578-.058.176.312,0,.395.206.488.259.117.44.386.759.3a18.324,18.324,0,0,0,2.307-.712v-.85c-.189-.1-.378-.189-.567-.283-.529-.612-1.066-.916-1.208-1.925m6.6,7.313H351.05v-.284a5.5,5.5,0,0,1-2.551-2.268h.566c1.277,1.162,3.277.021,3.4,2.552m-3.97-.284c-.162.57.034.246-.285.568.1.282.19.566.285.85l.85-.284a1.543,1.543,0,0,1,.1-.637c.284,0,.608,0,.891,0,.353.612.619.613,1.276.917a1.593,1.593,0,0,1-.4,1c-.392.219-.809.43-.909.811-.23,1.644-.28,2.4,0,3.036a1.973,1.973,0,0,0,1.817.725,4.376,4.376,0,0,0,1.119-.219c.4-.42.073-1.765.073-2.52h.379c.365,1,.489,1.127.561,1.356.535.615.535.615,1.046,1.2a1.844,1.844,0,0,1-.213,1.03c-.236.567-.1.254-.48.492a8.047,8.047,0,0,1-4.226-.225,2.282,2.282,0,0,1-1.063-.9,3.83,3.83,0,0,1-.43-2,7.1,7.1,0,0,1,.253-1.9c.069-.52.185-.493.185-.966-.093,0-.141-.1-.236-.1-.35.259-.832.389-1.164.591,0,.189-.228.561-.228.75-.253.562-.877,1.648-1.063,1.974a6.8,6.8,0,0,1-2.227,1.974,4.262,4.262,0,0,1-2.278.658c0-.095.132-.251.407-.534.756-.479,1.24-.882,1.985-1.419a8.129,8.129,0,0,0,1.278-1.261,5.222,5.222,0,0,0,.71-1.392,5.3,5.3,0,0,0-.507.379c-.886.455-2.2,1.539-2.556,1.646a5.526,5.526,0,0,0-1.193-.406c-.274-.183-.5-.126-.851-.384,0-.094.227-.224.6-.432l5.072-2.4c-.094,0,0-.561,0-.567.095-.666-.149-.739-.284-1.135-.717.61-.96,1.6-2.61,1.935,0-.093,0,0-.113-.26a6.931,6.931,0,0,0,.771-.676,18.718,18.718,0,0,0,.818-1.849c.095,0,0-.566,0-.566l.284-.852h.567c.5,1.032.662,1.708,1.986,1.986" transform="translate(-189.551 -17.024)" fill="#1a1311" fill-rule="evenodd"/>
      <path id="パス_995" data-name="パス 995" d="M379.164,34.958a3.461,3.461,0,0,1,2.354.456c.521.331.521.331.695,1.019a2.063,2.063,0,0,1-.72.753,11.176,11.176,0,0,1-3.29-.4c-1.519.145-2.653,0-2.653.092a11.3,11.3,0,0,0-2.413.411c-.378.095-2.264,1.242-2.551,1.134,0-.093-1.469-.826-1.7-1.7a21.419,21.419,0,0,1,6.105-.923,9.587,9.587,0,0,0,4.176-.836m-3.474,2.326h.851a5.773,5.773,0,0,0,1.25,1.384,1.066,1.066,0,0,1,.059.442c-.355.177-.494.337-.6,1.1a5.593,5.593,0,0,0-.06.87c.569.034.622-.017,1.291.051.323-.36.3-.65.659-.811a14.624,14.624,0,0,0,2.074-.025c.241-.129.2-.253.707-.285a2.363,2.363,0,0,0,.669.7,1.908,1.908,0,0,1-.11.929,3.254,3.254,0,0,0-1.763.046,1.24,1.24,0,0,0-.49.586,3.478,3.478,0,0,0,0,.515,11.3,11.3,0,0,0,.228,2.814,17.774,17.774,0,0,1,.122,1.969,15.763,15.763,0,0,1-.5,2.651,1.867,1.867,0,0,1-.7-.176,2.61,2.61,0,0,0-.568-1.133c0-2.27.152-4.765,0-6.807-.367.008-.53.1-.865.077a2.217,2.217,0,0,1-.754.041,7.45,7.45,0,0,0-.366,2.434,10.9,10.9,0,0,1-.215,1.59,3.867,3.867,0,0,1-.636,1.246,4.546,4.546,0,0,1-.96,1.032,4.3,4.3,0,0,1-1.138.38,2.547,2.547,0,0,1,.481-1.24,4.917,4.917,0,0,0,1.166-1.736,24.615,24.615,0,0,0,.58-6.566c-.08-.741-.317-1.418-.413-2.079m-3.815,3.876a6.328,6.328,0,0,0,1.393-.228,3.442,3.442,0,0,1,.126-.835,4.683,4.683,0,0,1,2,.481c0,.506-.008.684,0,.987a4.847,4.847,0,0,0-.728.51,2.691,2.691,0,0,1-.324,1.045,4.158,4.158,0,0,0-.235,1.2,2.022,2.022,0,0,1,.659.025c-.1.582-.387.676-.648,1.013-1.117.108-2.163.556-3.3.657-.188.566-.4.81-.734,1.62a6.932,6.932,0,0,1-1.519.987c-.253.077-.4-.051-.126-.481a6.065,6.065,0,0,0,1.24-1.9c-.09.441.4-.557.342-4.708,0-.472-.013-.74-.013-1.214-.095,0-.095,0-.271-.206q-.141-.566-.283-1.134a7.163,7.163,0,0,1,1.011.041,10.219,10.219,0,0,1,1.464,1.148c.026.4-.076.545-.051.987m1.249,3.189a1.983,1.983,0,0,1-.868.379,4.778,4.778,0,0,1-1.1.213c-.033-.116,0,0-.162-.289.187-.787.187-1.163.329-1.533a3.506,3.506,0,0,1,.339-.6,2.13,2.13,0,0,0,.8-.02,2.135,2.135,0,0,1,.679,0c0,.566-.013,1.281-.013,1.848" transform="translate(-201.278 -17.709)" fill="#1a1311" fill-rule="evenodd"/>
      <path id="パス_996" data-name="パス 996" d="M270.164,34.554c.167.333.167.333.216,1.165a3.71,3.71,0,0,1-2.551,1.323c0,.19-.019.4-.019.588.528.227.728.4,1.28.6a2.368,2.368,0,0,1,.752-.652,2.858,2.858,0,0,0,1.106.406,2.332,2.332,0,0,1,.175,1.206,8.738,8.738,0,0,0-.328.847c.095,2.455.059,4.563.153,7.022-.3.453-.446.392-1.134.568-.661-.378-1.19-.817-1.852-1.194-.132-.507-.351-.5-.132-.507a4.551,4.551,0,0,0,1.386-.094c0-2.269.031-4.728.031-7a4.445,4.445,0,0,0-1.7-.282.651.651,0,0,0,0,.567c0,.378.015.991.015,1.368.094,0,.321-.042.416-.042.26-.032.361-.133.419.281,0,.378.068.489-.125.567a3.408,3.408,0,0,1-1.163.626c.051.476-.023.8,0,1.078a1.784,1.784,0,0,0,.928,0,.787.787,0,0,1,.643-.025v.685a.428.428,0,0,0-.283.283h-1.134V46.78a2.312,2.312,0,0,0-.568.568h-.283a.429.429,0,0,0-.284-.285c-.11-.2.222-2.211.078-2.607-.329.166-.809.268-.93.339h-.851c-.3-.114-.219.1-.282.284v1.134a1.348,1.348,0,0,1-.6.727c-.353-.092-.2-.074-.438-.393a4.1,4.1,0,0,0-.1-.616,2.908,2.908,0,0,1,.2-1.174,8.921,8.921,0,0,0,.364-2.8,3.76,3.76,0,0,0-.331-2.137c0-.094.025-.345.038-.563.472,0,.833.295,1.444.029.326-.3,1.305-.479,1.581-.752.326-.15.276-.3.1-.547a1.329,1.329,0,0,1-.851-1.135h1.4c.147-.038.516.033.7-.123a5.542,5.542,0,0,0,.17-1.578,7.982,7.982,0,0,0-1.473.549,3.494,3.494,0,0,1-1.656.8,2.086,2.086,0,0,1-1.067-1.442c1.839-.437,2.794-1.032,4.754-1.467a2.911,2.911,0,0,0,1.777.96m-11.127,3.718-.568-1.7a4.464,4.464,0,0,1,1.7-.283c.782,1.154,1.377.409,1.417,2.552a3.6,3.6,0,0,1-1.417.285,1.326,1.326,0,0,0-1.135-.85m5.672,1.985c.284-.109.493-.216.493-.216.5-.251.522-.251.837-.2.2.152.192.055.192.148a12.173,12.173,0,0,0-.092,1.439c-.308.1-.736.566-1.438.494,0-.472.008-1.193.008-1.665m-4.254.566h.851a1.9,1.9,0,0,0,.85.85,17.5,17.5,0,0,0-1.143,3.309,7.689,7.689,0,0,0,1.174.591c.03.212.006.889-.2.939a.837.837,0,0,0-.552.754c2.017.2,4.154.542,6.1.777,1.79.216,3.533.119,5.392.3.095.189.857.612.857.7a7.048,7.048,0,0,0-1.419.852,4.566,4.566,0,0,1-3.4.284c0-.095-2.836-1.041-2.836-1.135-.8-.4-1.454-.483-2.269-.85a7.068,7.068,0,0,0-1.985-.285c0-.094-2.363.19-3.4.285-.45-.78-.542-.368-.692-1.56,0-.126.259-.182.928-.251.1.109.326.375.326.375.657.021,1.179-.049,1.556-.049a3.106,3.106,0,0,0,.275-1.33c-.095,0-.432-.1-.526-.1-.095-.566.169-1.013.074-1.581-.4-.15-1,.147-1.374.241a4.994,4.994,0,0,1-.851-1.418c.883-.355,2-.711,2.269-1.7m5.672,1.418v1.134l-1.418.285V42.242Z" transform="translate(-153.059 -17.116)" fill="#1a1311" fill-rule="evenodd"/>
      <path id="パス_997" data-name="パス 997" d="M326.1,38.538h1.134c.482-.184,1.184.33,1.7.568-.095.284-.19.566-.283.851-.269.379-.269.379-.939.447-.653.061-1.152-.072-1.72.024a27.206,27.206,0,0,0,.479,4.99,10.2,10.2,0,0,1-.4,3.21,2.071,2.071,0,0,1-.575,1.166c-.093,0-.16,0-.246-.194,0-.095-.344-.877-.344-.972-.179-1.163.042-5.849-.151-7.9a5.636,5.636,0,0,0-1.064.355c-.709.343-.806.608-.806.608-.007.332.109.882.108,1.574a8.524,8.524,0,0,1-.29,1.968,7.28,7.28,0,0,1-.857,1.526c-.889.828-1.274,1.474-2.484,1.739,0-.094.178-.386.178-.481,1.489-.847,2.227-4.682,2.022-5.227-.328-.088-.328-.088-.656-.711a2.41,2.41,0,0,1-.683.068c0-.094-.709-.734-.659-.918a8.56,8.56,0,0,0,.886-.449,6.739,6.739,0,0,0,1.164-.683,4.97,4.97,0,0,0-.145-1.507,4.454,4.454,0,0,1-.435-1.526c.511-.088.653-.129,1.086.274.455.455.785.481.858.914V39.39l1.7-.284v-3.12a1.873,1.873,0,0,0-1.7.165,1.709,1.709,0,0,1-1.7-.165c-.094-.377-.189-.756-.284-1.134l.284-.284c1.222-.112,2-.227,3.045-.417.095-.188.335-.342.43-.53.688-.374,1.037-.471,1.643-.113a4.964,4.964,0,0,0,.595.4,1.528,1.528,0,0,1-.137,1.3c-.568.19-1.039.015-1.606.205,0,.094-.015.358-.015.454.095,0,.305.019.4.019.564.36.893.74.751,1.228a2.945,2.945,0,0,0-.284,1.417M314.811,36.19c1.218-.242,2.452-.928,3.791-1.2a2.921,2.921,0,0,1,1.493.2c.165.433.033.42.1,1.089-.277.443-.509.222-1.064.253a4.034,4.034,0,0,0-1.645.785,2.12,2.12,0,0,1-1.444.253c-.374.088-.353,0-.724-.448-.267-.511-.335-.243-.51-.931m1.816,3.277c-.127,1.626-.417,1.887-.506,3.493.278.05.836-.378,1.252-.591a3.06,3.06,0,0,0,.784-.994,4.208,4.208,0,0,1,1.584,1.332c.24.383.3.583.118.937a9.11,9.11,0,0,0-.846,2.737,8,8,0,0,0,.4.706c-.234.378-1.037.489-1.225.489-.911-.025-1.282.2-2.03.216-.056.674.125.659-.041,1.091-.532.126-.683.025-.861-.43.085-.762-.024-1.469.06-2.54-.093,0-1.055,1.2-1.15,1.2-.55.353-.782.3-.55-.064.223-.392.322-.875.574-1.471.333-.946.282-1.059.61-2.262a4.084,4.084,0,0,0,.334-1.773c-.006-1.677-.056-2.049.011-3.33a3.131,3.131,0,0,1,1.477,1.255m-.455,5.879c-.043-.419.206-.787.065-.643a8.179,8.179,0,0,0,1.254-1.481c.189,0,.478-.145.666-.145a8.18,8.18,0,0,1-.028.97c0,.284-.047.929-.088,1.31-.064.365-.027.616-.122.616-.414.766-.583.583-1.012.913-.284,0-.374.1-.657.1,0-.472-.077-1.165-.077-1.639" transform="translate(-177.387 -16.98)" fill="#1a1311" fill-rule="evenodd"/>
      <path id="パス_998" data-name="パス 998" d="M212.308,33.6c.338.711.493.983.284,1.418a2.769,2.769,0,0,0-.567.566c-.639.286-2.228.06-2.836.285,0,.284.047,1.066.047,1.349,1-.194.79-.189,1.654-.384,1.2-.165,1.2-.165,1.291-.43.233-.5.428-.252,1.716-.309l.68.908c.457.286.457.286.851.525v1.178a6.77,6.77,0,0,1-3.441.45c0-.1.852-1.261.852-1.356.046-.471.046-.471-.247-.514a21.691,21.691,0,0,0-3.687.785c0,.472-.015,2.668-.015,3.139-.094,0,.136.325.152.6.095,0-.152.4-.582.752a1.126,1.126,0,0,1-.824-.475c-.377-.41-.2-.41-.15-1.4V38.709l-3.4.565q-.283,1.562-.568,3.121a.794.794,0,0,1-1.134.283,1.5,1.5,0,0,1-.316-1.465,14.738,14.738,0,0,1,1.166-3.64c.322.325.408.283.577.85a31.169,31.169,0,0,1,3.583-.968c.094,0,0-.448.094-.448v-.851h-.567c-.2.717-.2.717-.591.717-.69-.23-.891-.193-1.4-.717-.271-.329-.771-.3-.922-1.495.322-.238,0,0,.243-.319a23.953,23.953,0,0,0,4.167-.143c1.77-.512,1.9-.935,3.886-.6m-2.552,4.537h1.418c.426.282.284.662.284.852-.568.787-.788.787-1.7.566l-.28-.607c-.042-.494-.042-.494.28-.812m-5.1,1.418,1.985-.285c.239.324.079.114.284.285.114.6.114.6-.2.918-.236.187-.7.141-1.5.217-.268-.512-.393-.447-.567-1.135m4.882.768c.662,0,1.354-.013,2.016-.013a3.274,3.274,0,0,0,.671.59c.194.782-.154.774-.62,1.456.665,0,1.077.45,1.6.8.095.472.149.743.243,1.216a12.118,12.118,0,0,0-1.8,3.034c-.358.351-.969.266-.969.172-.087-.1-.043-.218-.276-.24-.395-.036-1.147-.027-1.5-.087-.172.454,0,.814,0,1.291a12.674,12.674,0,0,0,3.717.026c.387-.077.475-.368.853-1.123a8.176,8.176,0,0,0,.813-1.589c.31,1.279,1.55,1.9,1.55,2.751-.145,1.048-.415,1.131-.71,1.365a5.774,5.774,0,0,1-3.359.356c-1.439-.285-2.667.211-3.487-.636a4.831,4.831,0,0,1-.628-.847,2.537,2.537,0,0,1-.152-1.353,2.4,2.4,0,0,0-1.135.285v.283q-.709-.143-1.418-.283c-.062-2.149-1.255-2.9-1.7-4.539.321-.24.041.036.283-.284,2.658.519,4.822-.094,7.091-.566.094-.191.189-.378.283-.567a2.176,2.176,0,0,1-1.357-1.5m-5.165.65h1.985c.4.159.473.566.568.566.064.4-.4.816-.851.852a5.332,5.332,0,0,1-1.7-.567Zm4.713,3.491c0-.095.078-.426-.459-.656V43.53l2.269-.285a15.854,15.854,0,0,1-.567,2.836,9.758,9.758,0,0,0-1.134.285c0-.1-.265.079-.284-.285v-.566h.284c.68-.259,1.016-.426.851-1.135-.669-.068-.427.026-.959.088m-3.579.479c-.025-.556.242-.319.6-.362.316-.475.2-.338.823-.393,0,.379-.01.6-.01.975-.586.107-1.24.388-1.409-.219m.6,1.963c0-.093-.312-.734-.312-.829.473-.094.963-.046,1.436-.14,0,.284.039.648.039.931-.378,0-.785.038-1.163.038" transform="translate(-128.733 -17.066)" fill="#1a1311" fill-rule="evenodd"/>
      <path id="パス_999" data-name="パス 999" d="M293.6,34.055a3.769,3.769,0,0,1,1.754.436,6.3,6.3,0,0,1,.853.828c0,.357-.135.711-.032.6-.275.283-.461.482-.461.482v1.11a26.119,26.119,0,0,1,3.709-.366,2.149,2.149,0,0,1,.829.85c-.09.332,0,.65-.4,1.083-.095,0-.689.026-.785.026-.316-.134-.545-.158-.811-.27,0-.1-.407-.27-.6-.325a12.786,12.786,0,0,0-2.678.189,7.5,7.5,0,0,0-2.526.866,1.83,1.83,0,0,0-.639.433,2.017,2.017,0,0,1-.892.326c-.566-.225-.674-.7-1.535-.795-.231.519-.607.793-.757,1.3.15.356.671.4.56,1.222,0,.769-.107,1.483-.162,2.547-.068.83.073,2.742.162,4.543-.433.443-.745.8-.94.543a1.62,1.62,0,0,1-.674-.89,3.6,3.6,0,0,1,.342-1.545,15.155,15.155,0,0,0,.406-2.028c-.063-1.4,0-1.9-.135-2.849-.9.545-1.6,1.108-2.166,1.491a2.655,2.655,0,0,1-1.371.38c.568-.962,1.587-2.071,2.232-3.062a13.971,13.971,0,0,0,.961-1.8,15.5,15.5,0,0,0,1.344-3V35.247c.02-.544-.07-.417.073-.872a2.075,2.075,0,0,1,1.063-.263,8.253,8.253,0,0,1,1.134,2.269,13.679,13.679,0,0,0-1.7,2.553A31.785,31.785,0,0,0,294.3,37.8c-.283-1.323-.412-2.421-.7-3.744m-1.147,7.029c1.681-.731,2.555-1.573,4.515-1.661.264.185.38.053.554.741-.161.362-.241.459-.352.7-.435,0-1.619.384-2.109.46a6.538,6.538,0,0,1-1.732.7c-.514-.139-.643-.467-.876-.941m.1,3.422a1.7,1.7,0,0,1-.1-.826,4.118,4.118,0,0,0,1.608-.351,9.17,9.17,0,0,0,1.3-1.133,13.019,13.019,0,0,1,1.731.022,1.113,1.113,0,0,1,.108.839,4.406,4.406,0,0,1-.378.733c-.4.131-.7.216-.7.216a6.435,6.435,0,0,0-1.49.521c-.243.191-.537.539-.77.542-.343-.014-.37-.081-.637-.355a4.146,4.146,0,0,0-.665-.207m3.2.805c.421-.245.852-.657,1.392-1.008a8.728,8.728,0,0,1,1.968,1.162c0,.189,0,.369,0,.557a5.084,5.084,0,0,0-1.35,1.986c.094,0-.2.487-.109.487a6.536,6.536,0,0,0,.892.364c-.189.637-.472.736-.706,1.064a8.543,8.543,0,0,1-1.673.07c-.189-.278-1.417-.121-2,0a1.054,1.054,0,0,1-.892.342,6.132,6.132,0,0,0-.965-.91c0-.472-.082-1.124-.082-1.6-.319-.807-.347-.551-.63-.849a5.9,5.9,0,0,1-.706-.674c-.094-.284-.094-.284-.189-.567.474,0,.882-.03,1.354-.03.244.324.572.508.784.757a2.651,2.651,0,0,0,.968-.121c.4-.2.975-.469,1.95-1.034m.521,2.7c-.148.238-.007.138-.246.459a15.326,15.326,0,0,1-2.732.894s-.189-.352-.14-.5V47.468a7.319,7.319,0,0,1,3.118-1.445Z" transform="translate(-164.786 -17.317)" fill="#1a1311" fill-rule="evenodd"/>
      <path id="パス_1000" data-name="パス 1000" d="M232.408,33.215c1.007.191,1.22.23,1.708.765.094,0,.509.438.6.438.183.33.049.851-.284.851,0,.094-.237.389-.237.484h.775c0-.095,1.4-.427,2.014-.768.095-.189.127-.465.284-.567h1.418c.741.482.458.557.508.87.031.341-.194.891-.508.833a24.438,24.438,0,0,1-4.065.795,2.6,2.6,0,0,1-1.608-.512l-.851,1.134c-.884.78-1.068,1.005-2.037,1.082,0-.189.709-.852,1.469-2.216a17.515,17.515,0,0,0,.808-3.189m6,3.756a1.471,1.471,0,0,1,.289,1.649,25.607,25.607,0,0,0-5.393.9c-.319-.49-.179-.386-.851-.567v-.569c1.987-.395,3.593-1.356,5.956-1.417M233.3,42.3v2.611a21.053,21.053,0,0,1-3.12.569l-.284.851a7.035,7.035,0,0,0,1.986.566,3.148,3.148,0,0,1-.746,1.567,3.68,3.68,0,0,0-.956.986,4.042,4.042,0,0,0,.956.85c.326-.516.953-1.012,1.317-1.681a1.394,1.394,0,0,0-.162-1.809c.527-.237.614-.632,1.292-.763-.025,1.782-.387,2.795-.122,4.253a.977.977,0,0,0,1.008,0,19.732,19.732,0,0,0,.193-2.766c.035-.572-.021-1.127.02-1.589a13.4,13.4,0,0,0,1.53-.038c.542-.024.829.029,1.3.019l.532-.591a.306.306,0,0,0-.009-.514l-.548-.378a3.082,3.082,0,0,0-2.01.419.535.535,0,0,1-.475-.235c.68-.663,1.8-1.041,2.451-1.821.178-.361-.371-1.013-.466-1.3h-1.134a5.137,5.137,0,0,1-.57,1.8,2.167,2.167,0,0,1-.7-.986h-.346Zm.8-.389c-.872.353-1.852.513-2.5.734,0-.095-1.313-.756-1.7-1.42,0-.181.2-.17.284-.283a28.1,28.1,0,0,0,6.575-1.391,23.826,23.826,0,0,1,2.829-.232c.213-.271.287-.266.423-.557a3.9,3.9,0,0,1,1.242-.707c.8.857,1.087.9,1.163,2.427a13.751,13.751,0,0,0-1.278.7,3.836,3.836,0,0,0-.835,1.993,9.1,9.1,0,0,0-.056,1.3,7.3,7.3,0,0,0,.727,2.31c.435.78.889,1.1,1.172,1.1,0-.095.348.077.542-.969,0-.284.163-.867.163-1.15h.189c.295,1.758.926,2.7.756,3.97-.489.71-.489.71-1.418.566,0-.094-1.324-.85-1.418-1.134a11.642,11.642,0,0,1-1.47-2.369c.21.479-.505-1.178-.6-1.65l-.039-.869c0-.7.1-1.18.126-1.955.094-.92.264-1.388.264-1.765a16.851,16.851,0,0,0-3.82.7Zm-1.318,2.814c-.284,0-.685.02-.969.02-.567-.662-1.1-1.141-1.666-1.8a3.928,3.928,0,0,1,1.45-.3c.644.758,1.111.608,1.185,2.08m5.339,4.442c-.284.095-.851.095-.851,0-.874-.5-1.247-1.378-1.985-1.986q.142-.425.284-.85c1.531.549,2.557.673,2.552,2.836" transform="translate(-140.896 -16.95)" fill="#1a1311" fill-rule="evenodd"/>
    </g>
  </g>
</svg>
