<?xml version="1.0" encoding="UTF-8"?>
<svg id="_レイヤー_1" xmlns="http://www.w3.org/2000/svg" version="1.1" viewBox="0 0 1396.1240234 93.5751953">
  <!-- Generator: Adobe Illustrator 29.7.1, SVG Export Plug-In . SVG Version: 2.1.1 Build 8)  -->
  <defs>
    <style>
      .st0 {
        fill: #3e1485;
      }
    </style>
  </defs>
  <path class="st0" d="M28.6762695,13.5834961H0V2.2641602h69.4267578v11.3193359h-28.6762695v77.7280273h-12.0742188V13.5834961Z"/>
  <path class="st0" d="M126.0229492,93.5751953c-6.7915039,0-13.0390625-1.1953125-18.7402344-3.5849609-5.7026367-2.3896484-10.5864258-5.6787109-14.6523438-9.8730469-4.0678711-4.1923828-7.253418-9.1376953-9.5585938-14.8408203-2.3071289-5.7011719-3.4589844-11.8642578-3.4589844-18.4887695,0-6.6225586,1.1518555-12.7856445,3.4589844-18.4887695,2.3051758-5.7006836,5.4907227-10.6469727,9.5585938-14.8408203,4.065918-4.1918945,8.949707-7.4833984,14.6523438-9.8730469C112.9838867,1.1953125,119.2314453,0,126.0229492,0,132.8149414,0,139.0600586,1.1953125,144.7631836,3.5849609c5.7011719,2.3896484,10.5844727,5.6811523,14.6523438,9.8730469,4.065918,4.1938477,7.2514648,9.1401367,9.5585938,14.8408203,2.3051758,5.703125,3.4589844,11.8662109,3.4589844,18.4887695,0,6.6245117-1.1538086,12.7875977-3.4589844,18.4887695-2.3071289,5.703125-5.4926758,10.6484375-9.5585938,14.8408203-4.0678711,4.1943359-8.9511719,7.4833984-14.6523438,9.8730469-5.703125,2.3896484-11.9482422,3.5849609-18.7402344,3.5849609ZM126.0229492,82.2548828c5.1132812,0,9.7255859-.9433594,13.8349609-2.8291016,4.1074219-1.8867188,7.6289062-4.421875,10.5649414-7.609375,2.934082-3.1855469,5.1977539-6.9365234,6.7915039-11.2568359,1.5917969-4.3173828,2.3896484-8.9082031,2.3896484-13.7719727,0-4.8618164-.7978516-9.4526367-2.3896484-13.7719727-1.59375-4.3178711-3.8574219-8.0693359-6.7915039-11.2568359-2.9360352-3.1855469-6.4575195-5.7226562-10.5649414-7.609375-4.109375-1.8862305-8.7216797-2.8295898-13.8349609-2.8295898-5.1152344,0-9.7275391.9433594-13.8349609,2.8295898-4.109375,1.8867188-7.6308594,4.4238281-10.5649414,7.609375-2.9360352,3.1875-5.199707,6.9389648-6.7915039,11.2568359-1.59375,4.3193359-2.3896484,8.9101562-2.3896484,13.7719727,0,4.8637695.7958984,9.4545898,2.3896484,13.7719727,1.5917969,4.3203125,3.8554688,8.0712891,6.7915039,11.2568359,2.934082,3.1875,6.4555664,5.7226562,10.5649414,7.609375,4.1074219,1.8857422,8.7197266,2.8291016,13.8349609,2.8291016Z"/>
  <path class="st0" d="M195.7495117,2.2641602h12.0742188v36.9770508h46.1582031V2.2641602h12.0742188v89.0473633h-12.0742188v-40.7509766h-46.1582031v40.7509766h-12.0742188V2.2641602Z"/>
  <path class="st0" d="M335.859375,93.5751953c-6.7915039,0-13.0390625-1.1953125-18.7402344-3.5849609-5.7026367-2.3896484-10.5864258-5.6787109-14.6523438-9.8730469-4.0678711-4.1923828-7.253418-9.1376953-9.5585938-14.8408203-2.3071289-5.7011719-3.4589844-11.8642578-3.4589844-18.4887695,0-6.6225586,1.1518555-12.7856445,3.4589844-18.4887695,2.3051758-5.7006836,5.4907227-10.6469727,9.5585938-14.8408203,4.065918-4.1918945,8.949707-7.4833984,14.6523438-9.8730469C322.8203125,1.1953125,329.0678711,0,335.859375,0,342.6513672,0,348.8964844,1.1953125,354.5996094,3.5849609c5.7011719,2.3896484,10.5844727,5.6811523,14.6523438,9.8730469,4.065918,4.1938477,7.2514648,9.1401367,9.5585938,14.8408203,2.3051758,5.703125,3.4589844,11.8662109,3.4589844,18.4887695,0,6.6245117-1.1538086,12.7875977-3.4589844,18.4887695-2.3071289,5.703125-5.4926758,10.6484375-9.5585938,14.8408203-4.0678711,4.1943359-8.9511719,7.4833984-14.6523438,9.8730469-5.703125,2.3896484-11.9482422,3.5849609-18.7402344,3.5849609ZM335.859375,82.2548828c5.1132812,0,9.7255859-.9433594,13.8349609-2.8291016,4.1074219-1.8867188,7.6289062-4.421875,10.5649414-7.609375,2.934082-3.1855469,5.1977539-6.9365234,6.7915039-11.2568359,1.5917969-4.3173828,2.3896484-8.9082031,2.3896484-13.7719727,0-4.8618164-.7978516-9.4526367-2.3896484-13.7719727-1.59375-4.3178711-3.8574219-8.0693359-6.7915039-11.2568359-2.9360352-3.1855469-6.4575195-5.7226562-10.5649414-7.609375-4.109375-1.8862305-8.7216797-2.8295898-13.8349609-2.8295898-5.1152344,0-9.7275391.9433594-13.8349609,2.8295898-4.109375,1.8867188-7.6308594,4.4238281-10.5649414,7.609375-2.9360352,3.1875-5.199707,6.9389648-6.7915039,11.2568359-1.59375,4.3193359-2.3896484,8.9101562-2.3896484,13.7719727,0,4.8637695.7958984,9.4545898,2.3896484,13.7719727,1.5917969,4.3203125,3.8554688,8.0712891,6.7915039,11.2568359,2.934082,3.1875,6.4555664,5.7226562,10.5649414,7.609375,4.1074219,1.8857422,8.7197266,2.8291016,13.8349609,2.8291016Z"/>
  <path class="st0" d="M405.5859375,2.2641602h12.0742188v38.4863281h1.0058594L458.0332031,2.2641602h16.8535156l-43.0141602,41.1274414,45.9067383,47.9199219h-17.6079102l-41.5053711-44.5239258h-1.0058594v44.5239258h-12.0742188V2.2641602Z"/>
  <path class="st0" d="M504.0273438,2.2641602v54.5854492c0,2.7666016.3774414,5.6396484,1.1323242,8.6152344.7543945,2.9775391,2.012207,5.7226562,3.7729492,8.2382812,1.7607422,2.5146484,4.065918,4.5712891,6.9174805,6.1630859,2.8496094,1.59375,6.3710938,2.3886719,10.5649414,2.3886719,4.1918945,0,7.7133789-.7949219,10.5649414-2.3886719,2.8496094-1.5917969,5.1567383-3.6484375,6.9174805-6.1630859,1.7607422-2.515625,3.0185547-5.2607422,3.7729492-8.2382812.7548828-2.9755859,1.1318359-5.8486328,1.1318359-8.6152344V2.2641602h12.0742188v56.4716797c0,5.2006836-.8803711,9.9165039-2.6411133,14.1499023-1.7607422,4.234375-4.1938477,7.9042969-7.2949219,11.0048828-3.1030273,3.1025391-6.7504883,5.4931641-10.9418945,7.1689453-4.1938477,1.6757812-8.7216797,2.515625-13.5834961,2.515625-4.8637695,0-9.3916016-.8398438-13.5834961-2.515625-4.1938477-1.6757812-7.8413086-4.0664062-10.9423828-7.1689453-3.1030273-3.1005859-5.5336914-6.7705078-7.2944336-11.0048828-1.7612305-4.2333984-2.6416016-8.9492188-2.6416016-14.1499023V2.2641602h12.0742188Z"/>
  <path class="st0" d="M645.1435547,2.2641602v54.5854492c0,2.7666016.3774414,5.6396484,1.1323242,8.6152344.7543945,2.9775391,2.012207,5.7226562,3.7729492,8.2382812,1.7607422,2.5146484,4.065918,4.5712891,6.9174805,6.1630859,2.8496094,1.59375,6.3710938,2.3886719,10.5649414,2.3886719,4.1918945,0,7.7133789-.7949219,10.5649414-2.3886719,2.8496094-1.5917969,5.1567383-3.6484375,6.9174805-6.1630859,1.7607422-2.515625,3.0185547-5.2607422,3.7729492-8.2382812.7548828-2.9755859,1.1318359-5.8486328,1.1318359-8.6152344V2.2641602h12.0742188v56.4716797c0,5.2006836-.8798828,9.9165039-2.640625,14.1499023-1.7612305,4.234375-4.1943359,7.9042969-7.2954102,11.0048828-3.1030273,3.1025391-6.7504883,5.4931641-10.9418945,7.1689453-4.1938477,1.6757812-8.7216797,2.515625-13.5834961,2.515625-4.8637695,0-9.3916016-.8398438-13.5834961-2.515625-4.1938477-1.6757812-7.8413086-4.0664062-10.9423828-7.1689453-3.1030273-3.1005859-5.5336914-6.7705078-7.2944336-11.0048828-1.7612305-4.2333984-2.6416016-8.9492188-2.6416016-14.1499023V2.2641602h12.0742188Z"/>
  <path class="st0" d="M729.6489258,2.2641602h15.847168l49.0507812,73.199707h.2519531V2.2641602h12.0742188v89.0473633h-15.3447266l-49.5546875-73.2001953h-.2509766v73.2001953h-12.0737305V2.2641602Z"/>
  <path class="st0" d="M835.5107422,2.2641602h12.0742188v89.0473633h-12.0742188V2.2641602Z"/>
  <path class="st0" d="M865.0410156,2.2641602h13.9609375l26.1611328,72.4448242h.2509766l27.1669922-72.4448242h13.2060547l-35.0908203,89.0473633h-11.3193359L865.0410156,2.2641602Z"/>
  <path class="st0" d="M963.2431641,2.2641602h57.4775391v11.3193359h-45.4033203v26.5380859h42.2597656v11.3198242h-42.2597656v28.5498047h47.6679688v11.3203125h-59.7421875V2.2641602Z"/>
  <path class="st0" d="M1044.7050781,2.2641602h31.3173828c5.7011719,0,10.3955078.7763672,14.0869141,2.3266602,3.6884766,1.5527344,6.6025391,3.5219727,8.7402344,5.9116211,2.1386719,2.3896484,3.6259766,5.0737305,4.4658203,8.0493164.8369141,2.9770508,1.2568359,5.8481445,1.2568359,8.6152344,0,2.8515625-.5029297,5.597168-1.5087891,8.2382812s-2.4521484,5.0307617-4.3388672,7.1689453-4.1943359,3.9423828-6.9179688,5.4082031c-2.7255859,1.4677734-5.765625,2.3701172-9.1181641,2.7041016l25.2802734,40.625h-15.0927734l-22.6386719-39.2416992h-13.4580078v39.2416992h-12.0742188V2.2641602ZM1056.7792969,41.5053711h15.8476562c2.3457031,0,4.6728516-.1889648,6.9794922-.5664062,2.3056641-.3769531,4.359375-1.0688477,6.1630859-2.0751953,1.8027344-1.0058594,3.2490234-2.4526367,4.3398438-4.3388672,1.0878906-1.8867188,1.6347656-4.3393555,1.6347656-7.3579102s-.546875-5.4711914-1.6347656-7.3574219c-1.0908203-1.8867188-2.5371094-3.3330078-4.3398438-4.3393555-1.8037109-1.0063477-3.8574219-1.6977539-6.1630859-2.0751953-2.3066406-.3774414-4.6337891-.565918-6.9794922-.565918h-15.8476562v28.6762695Z"/>
  <path class="st0" d="M1131.0351562,72.6962891c2.1787109,3.2705078,4.9677734,5.6816406,8.3632812,7.2324219,3.3964844,1.5527344,6.8964844,2.3261719,10.5019531,2.3261719,2.0126953,0,4.0664062-.3144531,6.1630859-.9433594,2.0947266-.6289062,4.0029297-1.5722656,5.7226562-2.8291016,1.7177734-1.2578125,3.1230469-2.8085938,4.2128906-4.6533203,1.0888672-1.84375,1.6357422-3.9824219,1.6357422-6.4150391,0-3.4365234-1.0908203-6.0566406-3.2705078-7.8603516-2.1816406-1.8022461-4.8857422-3.3115234-8.1123047-4.527832-3.2285156-1.2148438-6.75-2.3896484-10.5644531-3.5219727-3.8164062-1.1318359-7.3378906-2.7041016-10.5654297-4.7163086-3.2285156-2.012207-5.9326172-4.7163086-8.1123047-8.1123047-2.1806641-3.3959961-3.2695312-7.9868164-3.2695312-13.7719727,0-2.5981445.5654297-5.3652344,1.6972656-8.3012695,1.1328125-2.934082,2.9130859-5.6162109,5.3457031-8.0493164,2.4306641-2.4311523,5.5537109-4.4648438,9.3701172-6.1000977C1143.9677734.8178711,1148.5585938,0,1153.9257812,0,1158.7871094,0,1163.4404297.6723633,1167.8857422,2.0126953c4.4433594,1.3422852,8.3427734,4.0678711,11.6972656,8.175293l-9.8105469,8.9296875c-1.5087891-2.3466797-3.6474609-4.2329102-6.4140625-5.659668-2.7675781-1.4248047-5.9111328-2.1381836-9.4326172-2.1381836-3.3554688,0-6.1435547.4399414-8.3642578,1.3203125-2.2226562.8808594-4.0048828,2.0126953-5.3457031,3.3959961-1.3417969,1.3837891-2.2851562,2.8730469-2.8291016,4.4648438-.546875,1.59375-.8183594,3.0620117-.8183594,4.4023438,0,3.7729492,1.0888672,6.6660156,3.2705078,8.6782227,2.1796875,2.012207,4.8837891,3.6474609,8.1123047,4.9052734,3.2265625,1.2573242,6.7480469,2.3896484,10.5644531,3.3955078,3.8144531,1.0063477,7.3369141,2.4116211,10.5654297,4.2133789,3.2265625,1.8041992,5.9306641,4.2353516,8.1123047,7.2949219,2.1796875,3.0620117,3.2695312,7.2753906,3.2695312,12.6396484,0,4.2773438-.8173828,8.1347656-2.4521484,11.5722656-1.6347656,3.4384766-3.8359375,6.3310547-6.6035156,8.6777344-2.7666016,2.3476562-6.0361328,4.1503906-9.8095703,5.4082031s-7.7978516,1.8867188-12.0742188,1.8867188c-5.703125,0-11.1113281-1.0058594-16.2246094-3.0185547-5.1152344-2.0126953-9.1816406-5.1142578-12.2001953-9.3076172l9.9365234-8.5527344Z"/>
  <path class="st0" d="M1203.9443359,2.2641602h12.0742188v89.0473633h-12.0742188V2.2641602Z"/>
  <path class="st0" d="M1263.3222656,13.5834961h-28.6757812V2.2641602h69.4257812v11.3193359h-28.6757812v77.7280273h-12.0742188V13.5834961Z"/>
  <path class="st0" d="M1350.3427734,53.3276367l-33.7070312-51.0634766h15.4697266l24.2744141,39.1152344,25.0283203-39.1152344h14.7158203l-33.7070312,51.0634766v37.9838867h-12.0742188v-37.9838867Z"/>
</svg>